<?xml version="1.0" standalone="no"?>
<!DOCTYPE svg PUBLIC "-//W3C//DTD SVG 20010904//EN"
 "http://www.w3.org/TR/2001/REC-SVG-20010904/DTD/svg10.dtd">
<svg version="1.0" xmlns="http://www.w3.org/2000/svg"
 width="700.000000pt" height="700.000000pt" viewBox="0 0 700.000000 700.000000"
 preserveAspectRatio="xMidYMid meet">
<metadata>
Created by potrace 1.14, written by Peter Selinger 2001-2017
</metadata>
<g transform="translate(0.000000,700.000000) scale(0.100000,-0.100000)"
fill="#000000" stroke="none">
<path d="M3275 6706 c-109 -41 -177 -123 -191 -228 -6 -46 -8 -48 -40 -49 -19
-1 -37 -2 -41 -3 -12 -3 -102 -17 -108 -17 -17 -1 -202 -54 -260 -76 -461
-172 -831 -547 -999 -1011 -14 -40 -28 -82 -30 -95 -2 -12 -11 -49 -19 -82 -9
-33 -21 -89 -27 -125 -7 -36 -14 -74 -16 -85 -2 -11 -6 -41 -8 -66 -10 -98
-68 -398 -81 -418 -11 -19 18 -12 64 15 100 57 337 124 499 142 87 9 426 9
522 -1 79 -8 100 -11 220 -28 98 -14 361 -67 424 -85 27 -8 78 -14 113 -14
l63 0 0 980 0 980 140 0 140 0 0 -980 0 -980 61 0 c33 0 84 7 112 15 29 8 63
16 77 19 14 2 48 10 75 16 61 14 61 14 210 39 227 37 340 46 580 45 133 0 219
-5 285 -17 108 -19 278 -63 294 -76 6 -5 29 -14 51 -21 22 -7 69 -28 104 -47
62 -34 64 -34 57 -11 -17 56 -75 359 -81 418 -3 36 -8 72 -10 80 -2 8 -7 31
-10 50 -7 43 -13 73 -30 155 -41 187 -146 415 -275 596 -127 180 -369 396
-540 483 -184 94 -256 123 -400 160 -98 26 -125 31 -222 42 -52 6 -58 9 -58
29 0 56 -35 131 -85 180 -75 76 -117 86 -346 84 -109 -1 -196 -6 -214 -13z
m-422 -840 c50 -21 77 -57 83 -112 9 -75 -18 -107 -143 -170 -185 -92 -304
-212 -398 -397 -27 -55 -62 -109 -76 -119 -76 -57 -193 -11 -214 83 -23 103
126 353 306 514 79 71 249 175 339 208 27 10 70 7 103 -7z"/>
<path d="M2019 4324 c-347 -52 -586 -198 -684 -417 -13 -29 -56 -124 -95 -212
-39 -88 -78 -173 -85 -190 -8 -16 -34 -74 -59 -129 -25 -54 -46 -100 -46 -102
0 -2 -14 -34 -31 -71 -62 -135 -167 -370 -199 -443 -18 -41 -44 -100 -57 -130
-111 -245 -251 -621 -293 -790 -39 -154 -40 -161 -44 -265 -5 -110 22 -202 87
-304 120 -185 346 -319 747 -443 87 -26 300 -83 342 -90 35 -6 227 241 297
381 16 31 41 92 56 136 30 90 52 119 102 136 92 30 183 -37 183 -134 0 -110
-146 -392 -293 -569 l-49 -60 28 -30 c90 -94 308 -192 519 -233 169 -32 231
-42 330 -50 39 -3 79 -7 90 -10 124 -26 1118 -27 1286 0 13 2 56 6 94 9 278
25 560 99 708 187 71 42 167 128 167 149 0 11 -29 60 -41 70 -16 13 -111 199
-139 272 -47 122 -47 170 2 223 43 45 106 57 160 29 44 -23 62 -48 88 -124 27
-80 85 -188 159 -297 66 -97 41 -94 266 -31 328 91 544 182 701 293 73 52 122
105 178 193 68 106 86 174 82 301 -5 119 -5 121 -47 281 -50 191 -186 551
-300 798 -22 46 -39 86 -39 89 0 5 -35 84 -103 233 -121 266 -318 702 -354
785 -61 140 -63 144 -104 205 -96 144 -217 228 -444 308 -16 6 -77 21 -135 33
-172 37 -541 32 -790 -11 -30 -5 -73 -12 -95 -16 -57 -8 -206 -41 -286 -64
-61 -17 -106 -19 -378 -20 l-308 -1 -140 35 c-77 19 -153 37 -169 39 -16 3
-56 10 -89 16 -107 19 -96 17 -305 40 -114 13 -375 10 -471 -5z m686 -274
c104 -17 123 -22 224 -56 151 -50 387 -168 422 -210 8 -10 12 -97 12 -309 l0
-294 31 16 c44 24 170 24 214 0 32 -17 32 -17 33 5 0 13 1 148 1 301 l1 278
41 27 c172 109 359 188 541 228 100 22 289 25 360 5 185 -52 324 -188 405
-396 53 -135 61 -328 20 -509 -34 -154 -148 -527 -189 -621 -5 -11 -25 -63
-45 -116 -56 -147 -112 -184 -214 -144 -72 29 -98 115 -61 206 74 187 209 591
209 629 0 6 -10 8 -22 5 -48 -11 -136 -14 -536 -14 l-413 -1 18 -32 c17 -31
18 -83 21 -700 l3 -668 -71 0 -70 0 0 420 0 420 -140 0 -140 0 0 -420 0 -420
-70 0 -71 0 3 668 c3 617 4 669 21 700 l18 32 -413 1 c-396 1 -470 3 -530 14
-16 2 -28 1 -28 -4 0 -32 92 -317 169 -523 28 -75 54 -150 57 -167 10 -47 -13
-99 -59 -132 -58 -42 -119 -37 -174 14 -37 33 -140 311 -247 668 -84 278 -92
494 -25 684 55 153 159 284 284 355 102 58 269 83 410 60z m232 -2367 c-2 -2
-96 -2 -209 -1 l-205 3 206 330 206 329 3 -328 c1 -181 1 -331 -1 -333z m1293
397 c84 -135 158 -254 165 -265 7 -11 29 -46 49 -77 l37 -58 -211 0 -210 0 0
332 c0 190 4 328 9 323 5 -6 77 -120 161 -255z"/>
</g>
</svg>
