<?xml version="1.0" standalone="no"?>
<!DOCTYPE svg PUBLIC "-//W3C//DTD SVG 20010904//EN"
 "http://www.w3.org/TR/2001/REC-SVG-20010904/DTD/svg10.dtd">
<svg version="1.0" xmlns="http://www.w3.org/2000/svg"
 width="1024.000000pt" height="1024.000000pt" viewBox="0 0 1024.000000 1024.000000"
 preserveAspectRatio="xMidYMid meet">
<metadata>
Created by potrace 1.14, written by Peter Selinger 2001-2017
</metadata>
<g transform="translate(0.000000,1024.000000) scale(0.100000,-0.100000)"
fill="#000000" stroke="none">
<path d="M262 10220 c0 -14 2 -19 5 -12 2 6 2 18 0 25 -3 6 -5 1 -5 -13z"/>
<path d="M3162 10220 c0 -14 2 -19 5 -12 2 6 2 18 0 25 -3 6 -5 1 -5 -13z"/>
<path d="M4122 10220 c0 -14 2 -19 5 -12 2 6 2 18 0 25 -3 6 -5 1 -5 -13z"/>
<path d="M5093 10160 c0 -47 2 -66 4 -42 2 23 2 61 0 85 -2 23 -4 4 -4 -43z"/>
<path d="M5733 10200 c0 -25 2 -35 4 -22 2 12 2 32 0 45 -2 12 -4 2 -4 -23z"/>
<path d="M6993 10160 c0 -47 2 -66 4 -42 2 23 2 61 0 85 -2 23 -4 4 -4 -43z"/>
<path d="M9202 10220 c0 -14 2 -19 5 -12 2 6 2 18 0 25 -3 6 -5 1 -5 -13z"/>
<path d="M10152 10153 c-1 -51 1 -93 6 -93 4 0 6 28 4 62 -5 113 -9 125 -10
31z"/>
<path d="M21 10113 c0 -28 2 -54 7 -57 4 -2 6 14 4 37 -5 68 -10 76 -11 20z"/>
<path d="M628 10063 c17 -2 47 -2 65 0 17 2 3 4 -33 4 -36 0 -50 -2 -32 -4z"/>
<path d="M2520 10062 c0 -7 -17 -13 -37 -14 l-38 -1 34 -4 c33 -4 61 10 48 24
-4 3 -7 1 -7 -5z"/>
<path d="M10208 10063 c6 -2 18 -2 25 0 6 3 1 5 -13 5 -14 0 -19 -2 -12 -5z"/>
<path d="M263 10025 c0 -16 1 -21 4 -10 3 19 12 20 129 20 174 0 180 13 8 17
l-140 3 -1 -30z"/>
<path d="M825 10055 c23 -8 83 -10 79 -3 -3 4 -24 8 -47 7 -23 0 -37 -2 -32
-4z"/>
<path d="M3010 10050 c-172 -6 -150 -14 30 -10 63 1 119 6 125 11 5 5 7 8 5 7
-3 -1 -75 -5 -160 -8z"/>
<path d="M6488 10053 c-116 -4 -124 -6 -112 -37 9 -23 24 -20 24 4 0 19 7 20
118 21 64 1 128 5 142 9 21 7 18 8 -15 7 -22 -1 -93 -3 -157 -4z"/>
<path d="M7578 10053 c12 -2 30 -2 40 0 9 3 -1 5 -23 4 -22 0 -30 -2 -17 -4z"/>
<path d="M8408 10053 c28 -2 76 -2 105 0 28 2 5 3 -53 3 -58 0 -81 -1 -52 -3z"/>
<path d="M8978 10053 c12 -2 32 -2 45 0 12 2 2 4 -23 4 -25 0 -35 -2 -22 -4z"/>
<path d="M9178 10053 c7 -3 16 -2 19 1 4 3 -2 6 -13 5 -11 0 -14 -3 -6 -6z"/>
<path d="M9828 10053 c6 -2 12 -14 12 -25 0 -18 2 -19 16 -7 14 12 14 14 -2
26 -10 7 -23 13 -28 12 -6 0 -5 -3 2 -6z"/>
<path d="M938 10043 c14 -3 22 -12 22 -24 0 -12 7 -19 20 -19 13 0 20 -7 20
-20 0 -17 7 -20 40 -20 39 0 40 1 40 35 0 28 4 35 20 35 11 0 20 -7 20 -15 0
-8 9 -15 20 -15 11 0 20 7 20 15 0 8 9 15 19 15 11 0 23 5 26 10 4 7 -45 10
-142 9 -81 -1 -138 -4 -125 -6z"/>
<path d="M1545 10013 c1 -21 3 -50 4 -65 l1 -28 105 0 105 0 0 40 0 40 40 0
c33 0 40 3 40 19 0 11 8 22 18 24 9 3 -58 5 -150 6 l-167 1 4 -37z"/>
<path d="M2200 9903 l4 -148 7 115 c3 63 7 127 8 142 1 22 6 27 34 31 26 3 24
4 -13 5 l-45 2 5 -147z"/>
<path d="M3528 10043 c6 -2 18 -2 25 0 6 3 1 5 -13 5 -14 0 -19 -2 -12 -5z"/>
<path d="M4137 9983 c-4 -38 -6 -106 -5 -153 1 -67 3 -53 9 65 9 157 6 202 -4
88z"/>
<path d="M4782 10025 c0 -16 2 -22 5 -12 2 9 2 23 0 30 -3 6 -5 -1 -5 -18z"/>
<path d="M5003 10043 c9 -2 23 -2 30 0 6 3 -1 5 -18 5 -16 0 -22 -2 -12 -5z"/>
<path d="M5423 10015 c0 -22 2 -30 4 -17 2 12 2 30 0 40 -3 9 -5 -1 -4 -23z"/>
<path d="M7000 10025 c0 -28 15 -34 24 -9 10 25 7 34 -9 34 -9 0 -15 -9 -15
-25z"/>
<path d="M7048 10043 c6 -2 18 -2 25 0 6 3 1 5 -13 5 -14 0 -19 -2 -12 -5z"/>
<path d="M7950 9960 l5 -85 3 77 3 77 67 3 67 3 -75 5 -75 5 5 -85z"/>
<path d="M9340 10040 c-18 -6 -8 -8 40 -9 45 0 60 2 50 9 -18 11 -55 11 -90 0z"/>
<path d="M10013 10043 c-72 -3 -93 -7 -93 -18 0 -19 75 -29 155 -20 l65 7 0
-125 c0 -91 -3 -127 -12 -130 -8 -3 -6 -6 5 -6 15 -1 17 13 17 149 0 150 0
150 -22 148 -13 -1 -65 -4 -115 -5z m52 -23 c14 -6 0 -9 -45 -8 -47 0 -58 2
-40 8 33 11 60 11 85 0z"/>
<path d="M8703 10033 c37 -2 96 -2 130 0 34 2 4 3 -68 3 -71 0 -99 -1 -62 -3z"/>
<path d="M9213 9980 c0 -36 2 -50 4 -32 2 17 2 47 0 65 -2 17 -4 3 -4 -33z"/>
<path d="M9368 10013 c6 -2 18 -2 25 0 6 3 1 5 -13 5 -14 0 -19 -2 -12 -5z"/>
<path d="M9360 9980 c0 -13 7 -20 20 -20 13 0 20 7 20 20 0 13 -7 20 -20 20
-13 0 -20 -7 -20 -20z"/>
<path d="M9840 9990 c0 -5 9 -10 20 -10 11 0 20 -4 20 -10 0 -5 9 -10 20 -10
13 0 20 7 20 20 0 17 -7 20 -40 20 -22 0 -40 -4 -40 -10z"/>
<path d="M2843 9895 c0 -38 2 -53 4 -32 2 20 2 52 0 70 -2 17 -4 1 -4 -38z"/>
<path d="M3482 9940 c0 -14 2 -19 5 -12 2 6 2 18 0 25 -3 6 -5 1 -5 -13z"/>
<path d="M6998 9851 c-2 -60 0 -107 4 -103 9 10 15 199 6 207 -4 4 -8 -43 -10
-104z"/>
<path d="M8254 9850 c0 -58 1 -81 3 -52 2 28 2 76 0 105 -2 28 -3 5 -3 -53z"/>
<path d="M9514 9855 c0 -55 1 -76 3 -47 2 29 2 74 0 100 -2 26 -3 2 -3 -53z"/>
<path d="M4774 9835 c0 -49 1 -71 3 -48 2 23 2 64 0 90 -2 26 -3 8 -3 -42z"/>
<path d="M5423 9880 c0 -25 2 -35 4 -22 2 12 2 32 0 45 -2 12 -4 2 -4 -23z"/>
<path d="M8883 9840 c0 -47 2 -66 4 -42 2 23 2 61 0 85 -2 23 -4 4 -4 -43z"/>
<path d="M2518 9660 c3 -124 6 -227 8 -229 7 -7 2 300 -6 379 -3 41 -5 -26 -2
-150z"/>
<path d="M5082 9860 c0 -14 2 -19 5 -12 2 6 2 18 0 25 -3 6 -5 1 -5 -13z"/>
<path d="M572 9800 c0 -25 4 -72 8 -105 l7 -60 1 50 c0 28 -3 75 -8 105 l-7
55 -1 -45z"/>
<path d="M4443 9795 c0 -27 2 -38 4 -22 2 15 2 37 0 50 -2 12 -4 0 -4 -28z"/>
<path d="M6668 9795 c-2 -25 0 -45 4 -45 5 0 8 20 8 45 0 25 -2 45 -4 45 -2 0
-6 -20 -8 -45z"/>
<path d="M7953 9800 c0 -25 2 -35 4 -22 2 12 2 32 0 45 -2 12 -4 2 -4 -23z"/>
<path d="M1212 9775 c0 -16 2 -22 5 -12 2 9 2 23 0 30 -3 6 -5 -1 -5 -18z"/>
<path d="M3149 9780 c-6 -30 25 -69 35 -44 3 8 -1 14 -9 14 -7 0 -15 12 -17
28 l-3 27 -6 -25z"/>
<path d="M1861 9755 c-1 -21 15 -31 39 -24 l25 7 -27 1 c-14 1 -29 7 -31 14
-3 6 -6 8 -6 2z"/>
<path d="M3796 9746 c3 -9 13 -16 22 -16 8 0 13 1 11 3 -2 1 -12 9 -22 16 -15
12 -17 12 -11 -3z"/>
<path d="M8648 9753 c6 -2 18 -2 25 0 6 3 1 5 -13 5 -14 0 -19 -2 -12 -5z"/>
<path d="M620 9739 c-18 -6 -14 -7 18 -3 27 4 42 2 42 -5 0 -6 9 -11 20 -11
11 0 20 7 20 15 0 17 -57 19 -100 4z"/>
<path d="M778 9743 c12 -2 32 -2 45 0 12 2 2 4 -23 4 -25 0 -35 -2 -22 -4z"/>
<path d="M5092 9675 l0 -80 9 58 c5 33 4 67 -1 80 -6 16 -9 -1 -8 -58z"/>
<path d="M1220 9683 c0 -32 5 -65 10 -73 7 -10 8 6 4 52 l-7 66 29 5 c29 4 29
4 -3 6 l-33 1 0 -57z"/>
<path d="M1320 9730 c0 -5 9 -10 20 -10 11 0 20 5 20 10 0 6 -9 10 -20 10 -11
0 -20 -4 -20 -10z"/>
<path d="M6728 9733 c6 -2 18 -2 25 0 6 3 1 5 -13 5 -14 0 -19 -2 -12 -5z"/>
<path d="M8262 9688 l2 -53 3 47 c4 42 7 47 31 51 24 4 24 4 -5 6 l-33 1 2
-52z"/>
<path d="M8890 9700 c0 -22 2 -40 4 -40 2 0 6 18 8 40 2 22 0 40 -4 40 -5 0
-8 -18 -8 -40z"/>
<path d="M8978 9733 c12 -2 32 -2 45 0 12 2 2 4 -23 4 -25 0 -35 -2 -22 -4z"/>
<path d="M9520 9724 c0 -12 3 -14 13 -6 7 6 44 13 82 15 l70 3 -82 2 c-71 2
-83 0 -83 -14z"/>
<path d="M10160 9710 c0 -28 2 -30 40 -30 38 0 40 2 40 30 0 28 -2 30 -40 30
-38 0 -40 -2 -40 -30z"/>
<path d="M48 9723 c6 -2 18 -2 25 0 6 3 1 5 -13 5 -14 0 -19 -2 -12 -5z"/>
<path d="M4453 9695 c0 -22 2 -30 4 -17 2 12 2 30 0 40 -3 9 -5 -1 -4 -23z"/>
<path d="M6991 9714 c0 -11 3 -14 6 -6 3 7 2 16 -1 19 -3 4 -6 -2 -5 -13z"/>
<path d="M1533 9660 c0 -36 2 -50 4 -32 2 17 2 47 0 65 -2 17 -4 3 -4 -33z"/>
<path d="M6044 9600 c0 -69 1 -97 3 -62 2 34 2 90 0 125 -2 34 -3 6 -3 -63z"/>
<path d="M3812 9660 c0 -14 2 -19 5 -12 2 6 2 18 0 25 -3 6 -5 1 -5 -13z"/>
<path d="M3163 9615 c0 -33 2 -45 4 -27 2 18 2 45 0 60 -2 15 -4 0 -4 -33z"/>
<path d="M1874 9565 c0 -49 1 -71 3 -48 2 23 2 64 0 90 -2 26 -3 8 -3 -42z"/>
<path d="M582 9580 c0 -14 2 -19 5 -12 2 6 2 18 0 25 -3 6 -5 1 -5 -13z"/>
<path d="M3812 9580 c0 -14 2 -19 5 -12 2 6 2 18 0 25 -3 6 -5 1 -5 -13z"/>
<path d="M10162 9575 c0 -16 2 -22 5 -12 2 9 2 23 0 30 -3 6 -5 -1 -5 -18z"/>
<path d="M7623 9520 c0 -25 2 -35 4 -22 2 12 2 32 0 45 -2 12 -4 2 -4 -23z"/>
<path d="M888 9474 c-2 -25 0 -48 4 -50 5 -3 8 18 8 45 0 64 -7 66 -12 5z"/>
<path d="M3812 9484 c-1 -23 -4 -57 -7 -75 l-5 -34 11 33 c5 19 8 53 6 75 l-4
42 -1 -41z"/>
<path d="M4453 9480 c0 -25 2 -35 4 -22 2 12 2 32 0 45 -2 12 -4 2 -4 -23z"/>
<path d="M4763 9475 c0 -27 2 -38 4 -22 2 15 2 37 0 50 -2 12 -4 0 -4 -28z"/>
<path d="M6992 9500 c0 -14 2 -19 5 -12 2 6 2 18 0 25 -3 6 -5 1 -5 -13z"/>
<path d="M9190 9480 c0 -22 -4 -40 -10 -40 -5 0 -10 -4 -10 -10 0 -5 7 -10 15
-10 11 0 15 12 15 50 0 28 -2 50 -5 50 -3 0 -5 -18 -5 -40z"/>
<path d="M1532 9460 c0 -14 2 -19 5 -12 2 6 2 18 0 25 -3 6 -5 1 -5 -13z"/>
<path d="M2180 9461 c0 -11 -6 -22 -12 -24 -8 -3 -6 -6 5 -6 12 -1 17 7 17 24
0 14 -2 25 -5 25 -3 0 -5 -9 -5 -19z"/>
<path d="M2828 9455 c-3 -14 -1 -25 3 -25 5 0 9 11 9 25 0 14 -2 25 -4 25 -2
0 -6 -11 -8 -25z"/>
<path d="M7322 9460 c0 -14 2 -19 5 -12 2 6 2 18 0 25 -3 6 -5 1 -5 -13z"/>
<path d="M648 9433 c6 -2 18 -2 25 0 6 3 1 5 -13 5 -14 0 -19 -2 -12 -5z"/>
<path d="M808 9433 c6 -2 18 -2 25 0 6 3 1 5 -13 5 -14 0 -19 -2 -12 -5z"/>
<path d="M2778 9433 c7 -3 16 -2 19 1 4 3 -2 6 -13 5 -11 0 -14 -3 -6 -6z"/>
<path d="M3485 9260 c0 -99 3 -171 7 -162 4 9 7 69 7 132 1 63 5 129 10 147 7
25 6 35 -7 47 -16 14 -17 2 -17 -164z"/>
<path d="M10203 9433 c9 -2 23 -2 30 0 6 3 -1 5 -18 5 -16 0 -22 -2 -12 -5z"/>
<path d="M2854 9413 c-9 -10 -13 -34 -12 -76 l1 -62 6 65 6 65 35 5 c35 6 35
6 7 12 -18 3 -33 0 -43 -9z"/>
<path d="M8498 9423 c12 -2 32 -2 45 0 12 2 2 4 -23 4 -25 0 -35 -2 -22 -4z"/>
<path d="M262 9348 l2 -73 3 62 4 61 49 7 c27 4 63 4 79 0 17 -3 38 -2 48 4
13 8 -9 10 -84 11 l-103 0 2 -72z"/>
<path d="M573 9350 c0 -41 2 -58 4 -37 2 20 2 54 0 75 -2 20 -4 3 -4 -38z"/>
<path d="M960 9410 c0 -6 21 -8 58 -4 77 9 78 14 4 14 -35 0 -62 -4 -62 -10z"/>
<path d="M1540 9328 c0 -49 4 -88 9 -88 6 0 8 34 5 83 l-4 82 94 0 c52 0 92 2
89 5 -2 3 -47 5 -99 5 l-94 0 0 -87z"/>
<path d="M1850 9409 c0 -5 5 -7 10 -4 6 3 10 8 10 11 0 2 -4 4 -10 4 -5 0 -10
-5 -10 -11z"/>
<path d="M4132 9268 l2 -153 3 148 c3 106 7 146 15 141 7 -4 8 -3 4 4 -20 33
-26 1 -24 -140z"/>
<path d="M4771 9404 c0 -11 3 -14 6 -6 3 7 2 16 -1 19 -3 4 -6 -2 -5 -13z"/>
<path d="M4813 9413 c15 -2 37 -2 50 0 12 2 0 4 -28 4 -27 0 -38 -2 -22 -4z"/>
<path d="M4968 9413 c6 -2 18 -2 25 0 6 3 1 5 -13 5 -14 0 -19 -2 -12 -5z"/>
<path d="M7942 9390 c0 -19 2 -27 5 -17 2 9 2 25 0 35 -3 9 -5 1 -5 -18z"/>
<path d="M9258 9413 c29 -2 74 -2 100 0 26 2 2 3 -53 3 -55 0 -76 -1 -47 -3z"/>
<path d="M9843 9360 c0 -36 2 -50 4 -32 2 17 2 47 0 65 -2 17 -4 3 -4 -33z"/>
<path d="M5734 9280 c0 -69 1 -97 3 -62 2 34 2 90 0 125 -2 34 -3 6 -3 -63z"/>
<path d="M902 9330 c0 -19 2 -27 5 -17 2 9 2 25 0 35 -3 9 -5 1 -5 -18z"/>
<path d="M4772 9300 c0 -14 2 -19 5 -12 2 6 2 18 0 25 -3 6 -5 1 -5 -13z"/>
<path d="M903 9200 c0 -25 2 -35 4 -22 2 12 2 32 0 45 -2 12 -4 2 -4 -23z"/>
<path d="M2513 9175 c0 -38 2 -53 4 -32 2 20 2 52 0 70 -2 17 -4 1 -4 -38z"/>
<path d="M4772 9220 c0 -14 2 -19 5 -12 2 6 2 18 0 25 -3 6 -5 1 -5 -13z"/>
<path d="M1213 9160 c0 -25 2 -35 4 -22 2 12 2 32 0 45 -2 12 -4 2 -4 -23z"/>
<path d="M7001 9158 c-1 -27 3 -48 7 -48 4 0 6 17 4 38 -5 58 -10 62 -11 10z"/>
<path d="M10141 9163 c-1 -23 3 -44 7 -47 4 -2 6 12 4 32 -5 56 -10 62 -11 15z"/>
<path d="M3802 9140 c0 -14 2 -19 5 -12 2 6 2 18 0 25 -3 6 -5 1 -5 -13z"/>
<path d="M5082 9140 c0 -14 2 -19 5 -12 2 6 2 18 0 25 -3 6 -5 1 -5 -13z"/>
<path d="M1540 9140 c0 -5 5 -10 10 -10 6 0 10 5 10 10 0 6 -4 10 -10 10 -5 0
-10 -4 -10 -10z"/>
<path d="M7043 9113 c9 -2 23 -2 30 0 6 3 -1 5 -18 5 -16 0 -22 -2 -12 -5z"/>
<path d="M9517 9100 c3 -11 7 -20 9 -20 2 0 4 9 4 20 0 11 -4 20 -9 20 -5 0
-7 -9 -4 -20z"/>
<path d="M28 9103 c12 -2 30 -2 40 0 9 3 -1 5 -23 4 -22 0 -30 -2 -17 -4z"/>
<path d="M633 9103 c32 -2 81 -2 110 0 29 2 3 3 -58 3 -60 0 -84 -1 -52 -3z"/>
<path d="M1293 9103 c9 -2 23 -2 30 0 6 3 -1 5 -18 5 -16 0 -22 -2 -12 -5z"/>
<path d="M1528 9103 c-2 -5 0 -39 3 -78 l5 -70 2 78 c2 70 -1 90 -10 70z"/>
<path d="M9008 9103 c6 -2 18 -2 25 0 6 3 1 5 -13 5 -14 0 -19 -2 -12 -5z"/>
<path d="M10208 9103 c6 -2 18 -2 25 0 6 3 1 5 -13 5 -14 0 -19 -2 -12 -5z"/>
<path d="M885 9090 c-3 -5 -1 -10 4 -10 6 0 11 5 11 10 0 6 -2 10 -4 10 -3 0
-8 -4 -11 -10z"/>
<path d="M10 8943 l0 -148 55 3 c46 3 55 7 55 23 0 12 -7 19 -20 19 -17 0 -20
7 -20 40 0 38 -2 40 -31 40 l-30 0 3 85 c2 47 0 85 -4 85 -5 0 -8 -66 -8 -147z"/>
<path d="M688 9083 c6 -2 18 -2 25 0 6 3 1 5 -13 5 -14 0 -19 -2 -12 -5z"/>
<path d="M2524 9005 c0 -49 1 -71 3 -48 2 23 2 64 0 90 -2 26 -3 8 -3 -42z"/>
<path d="M3814 8920 c0 -52 1 -74 3 -47 2 26 2 68 0 95 -2 26 -3 4 -3 -48z"/>
<path d="M4452 8914 c-1 -50 -4 -107 -7 -125 l-5 -34 10 33 c6 18 9 74 7 125
l-3 92 -2 -91z"/>
<path d="M5413 8920 c0 -47 2 -66 4 -42 2 23 2 61 0 85 -2 23 -4 4 -4 -43z"/>
<path d="M7312 8980 c0 -14 2 -19 5 -12 2 6 2 18 0 25 -3 6 -5 1 -5 -13z"/>
<path d="M10163 8950 c0 -30 2 -43 4 -27 2 15 2 39 0 55 -2 15 -4 2 -4 -28z"/>
<path d="M6993 8900 c0 -36 2 -50 4 -32 2 17 2 47 0 65 -2 17 -4 3 -4 -33z"/>
<path d="M3173 8870 c0 -30 2 -43 4 -27 2 15 2 39 0 55 -2 15 -4 2 -4 -28z"/>
<path d="M582 8854 c-1 -17 -4 -47 -7 -65 l-5 -34 11 34 c5 18 8 47 6 65 l-4
31 -1 -31z"/>
<path d="M3482 8845 c-2 -42 11 -75 25 -62 4 5 2 11 -4 15 -6 4 -13 25 -16 47
l-4 40 -1 -40z"/>
<path d="M4122 8845 c-1 -22 2 -44 6 -50 10 -14 32 -17 32 -5 0 6 -6 10 -14
10 -10 0 -16 14 -19 43 l-4 42 -1 -40z"/>
<path d="M10161 8843 l-1 -43 40 0 c22 0 40 5 40 10 0 6 -9 10 -19 10 -11 0
-22 6 -24 13 -3 6 -6 3 -7 -8 -1 -13 -7 -6 -15 20 l-13 40 -1 -42z"/>
<path d="M3810 8810 c0 -6 7 -10 15 -10 8 0 15 2 15 4 0 2 -7 6 -15 10 -8 3
-15 1 -15 -4z"/>
<path d="M9180 8810 c-13 -8 -12 -10 3 -10 9 0 17 5 17 10 0 12 -1 12 -20 0z"/>
<path d="M3368 8803 c6 -2 18 -2 25 0 6 3 1 5 -13 5 -14 0 -19 -2 -12 -5z"/>
<path d="M6681 8723 c2 -92 6 -82 11 25 2 34 0 62 -4 62 -5 0 -7 -39 -7 -87z"/>
<path d="M9128 8803 c6 -2 18 -2 25 0 6 3 1 5 -13 5 -14 0 -19 -2 -12 -5z"/>
<path d="M9808 8803 c6 -2 18 -2 25 0 6 3 1 5 -13 5 -14 0 -19 -2 -12 -5z"/>
<path d="M262 8770 c0 -19 2 -27 5 -17 2 9 2 25 0 35 -3 9 -5 1 -5 -18z"/>
<path d="M317 8793 c24 -2 62 -2 86 0 23 2 4 4 -43 4 -47 0 -66 -2 -43 -4z"/>
<path d="M983 8793 c43 -2 110 -2 150 0 40 1 5 3 -78 3 -82 0 -115 -2 -72 -3z"/>
<path d="M1658 8793 c12 -2 32 -2 45 0 12 2 2 4 -23 4 -25 0 -35 -2 -22 -4z"/>
<path d="M1862 8780 c0 -14 2 -19 5 -12 2 6 2 18 0 25 -3 6 -5 1 -5 -13z"/>
<path d="M2308 8793 c17 -2 47 -2 65 0 17 2 3 4 -33 4 -36 0 -50 -2 -32 -4z"/>
<path d="M3558 8793 c23 -2 61 -2 85 0 23 2 4 4 -43 4 -47 0 -66 -2 -42 -4z"/>
<path d="M8575 8790 c3 -5 11 -10 16 -10 6 0 7 5 4 10 -3 6 -11 10 -16 10 -6
0 -7 -4 -4 -10z"/>
<path d="M8688 8793 c6 -2 18 -2 25 0 6 3 1 5 -13 5 -14 0 -19 -2 -12 -5z"/>
<path d="M8850 8796 c0 -2 9 -6 20 -9 11 -3 20 -1 20 4 0 5 -9 9 -20 9 -11 0
-20 -2 -20 -4z"/>
<path d="M9938 8793 c12 -2 32 -2 45 0 12 2 2 4 -23 4 -25 0 -35 -2 -22 -4z"/>
<path d="M1048 8773 c6 -2 18 -2 25 0 6 3 1 5 -13 5 -14 0 -19 -2 -12 -5z"/>
<path d="M8584 8660 c0 -58 1 -81 3 -52 2 28 2 76 0 105 -2 28 -3 5 -3 -53z"/>
<path d="M262 8660 c0 -14 2 -19 5 -12 2 6 2 18 0 25 -3 6 -5 1 -5 -13z"/>
<path d="M3494 8585 c0 -55 1 -76 3 -47 2 29 2 74 0 100 -2 26 -3 2 -3 -53z"/>
<path d="M2853 8560 c0 -47 2 -66 4 -42 2 23 2 61 0 85 -2 23 -4 4 -4 -43z"/>
<path d="M2511 8543 c0 -35 2 -63 7 -63 4 0 6 21 4 48 -5 75 -10 82 -11 15z"/>
<path d="M6683 8545 c0 -33 2 -45 4 -27 2 18 2 45 0 60 -2 15 -4 0 -4 -33z"/>
<path d="M4132 8540 c0 -14 2 -19 5 -12 2 6 2 18 0 25 -3 6 -5 1 -5 -13z"/>
<path d="M10140 8523 c-3 -23 -2 -39 3 -34 5 5 7 24 5 42 -3 33 -4 33 -8 -8z"/>
<path d="M1688 8513 c6 -2 18 -2 25 0 6 3 1 5 -13 5 -14 0 -19 -2 -12 -5z"/>
<path d="M9210 8511 c0 -6 4 -13 10 -16 6 -3 7 1 4 9 -7 18 -14 21 -14 7z"/>
<path d="M9505 8490 c-3 -5 -1 -10 4 -10 6 0 11 5 11 10 0 6 -2 10 -4 10 -3 0
-8 -4 -11 -10z"/>
<path d="M328 8483 c6 -2 18 -2 25 0 6 3 1 5 -13 5 -14 0 -19 -2 -12 -5z"/>
<path d="M488 8483 c6 -2 18 -2 25 0 6 3 1 5 -13 5 -14 0 -19 -2 -12 -5z"/>
<path d="M567 8483 c6 -4 13 -26 16 -48 4 -40 4 -40 3 4 -1 30 -6 46 -16 48
-10 3 -11 2 -3 -4z"/>
<path d="M10088 8483 c6 -2 18 -2 25 0 6 3 1 5 -13 5 -14 0 -19 -2 -12 -5z"/>
<path d="M683 8473 c26 -2 68 -2 95 0 26 2 4 3 -48 3 -52 0 -74 -1 -47 -3z"/>
<path d="M8938 8473 c12 -2 32 -2 45 0 12 2 2 4 -23 4 -25 0 -35 -2 -22 -4z"/>
<path d="M10173 8473 c15 -2 37 -2 50 0 12 2 0 4 -28 4 -27 0 -38 -2 -22 -4z"/>
<path d="M648 8453 c6 -2 18 -2 25 0 6 3 1 5 -13 5 -14 0 -19 -2 -12 -5z"/>
<path d="M12 8260 c-2 -99 -1 -103 16 -87 12 13 14 20 5 25 -7 5 -13 39 -16
87 -3 76 -3 74 -5 -25z"/>
<path d="M583 8320 c0 -25 2 -35 4 -22 2 12 2 32 0 45 -2 12 -4 2 -4 -23z"/>
<path d="M9832 8340 c0 -14 2 -19 5 -12 2 6 2 18 0 25 -3 6 -5 1 -5 -13z"/>
<path d="M10163 8320 c0 -25 2 -35 4 -22 2 12 2 32 0 45 -2 12 -4 2 -4 -23z"/>
<path d="M1532 8300 c0 -14 2 -19 5 -12 2 6 2 18 0 25 -3 6 -5 1 -5 -13z"/>
<path d="M2523 8240 c0 -47 1 -77 4 -67 2 9 10 17 16 17 9 0 9 2 0 8 -6 4 -14
34 -16 67 -2 47 -3 41 -4 -25z"/>
<path d="M32 8260 c0 -14 2 -19 5 -12 2 6 2 18 0 25 -3 6 -5 1 -5 -13z"/>
<path d="M1530 8200 c0 -22 3 -40 8 -40 4 0 6 18 4 40 -2 22 -6 40 -8 40 -2 0
-4 -18 -4 -40z"/>
<path d="M3173 8205 c0 -22 2 -30 4 -17 2 12 2 30 0 40 -3 9 -5 -1 -4 -23z"/>
<path d="M8262 8215 c0 -16 2 -22 5 -12 2 9 2 23 0 30 -3 6 -5 -1 -5 -18z"/>
<path d="M246 8182 c-4 -7 -2 -12 3 -12 7 0 12 -28 13 -67 l2 -68 3 62 4 62
47 4 47 3 -52 2 c-30 1 -53 7 -55 14 -3 9 -6 9 -12 0z"/>
<path d="M1433 8173 c9 -2 25 -2 35 0 9 3 1 5 -18 5 -19 0 -27 -2 -17 -5z"/>
<path d="M4790 8174 c-159 -29 -363 -72 -440 -94 -136 -39 -358 -123 -452
-171 -64 -32 -83 -38 -90 -27 -8 10 -9 9 -5 -3 4 -11 -3 -20 -19 -28 -19 -8
-24 -8 -18 0 5 9 0 10 -17 6 -13 -4 -35 -7 -49 -8 -18 -1 -14 -4 12 -8 l37 -6
-105 -65 c-149 -92 -321 -227 -444 -350 -58 -57 -109 -103 -113 -102 -5 1 -6
-2 -2 -8 3 -5 -29 -51 -72 -102 -89 -106 -114 -141 -202 -286 -176 -292 -262
-486 -329 -742 -166 -631 -100 -1330 177 -1876 136 -266 234 -415 413 -624
174 -204 323 -332 580 -500 112 -73 377 -205 509 -254 234 -86 506 -140 786
-157 581 -35 1050 83 1598 401 302 175 591 466 826 830 67 104 139 224 139
232 0 4 18 38 40 76 73 127 172 395 209 567 20 96 50 281 62 385 33 292 -33
799 -142 1097 -101 277 -298 629 -477 852 -258 320 -579 569 -957 742 -104 47
-320 123 -415 145 -331 78 -318 77 -680 80 -184 1 -346 0 -360 -2z m674 -290
c144 -18 191 -29 401 -96 214 -69 504 -213 660 -329 305 -227 550 -507 718
-819 112 -207 226 -521 266 -734 105 -548 -13 -1171 -320 -1693 -139 -236
-403 -535 -614 -695 -263 -200 -696 -387 -1025 -443 -74 -12 -125 -18 -265
-30 -76 -6 -499 15 -577 29 -174 31 -350 82 -523 153 -447 183 -795 464 -1102
891 -77 106 -217 386 -271 542 -110 312 -127 419 -127 800 0 324 11 421 70
637 40 150 125 389 159 448 13 22 27 51 31 65 21 74 205 345 328 484 100 113
318 308 427 382 130 88 388 222 517 268 303 107 434 136 723 160 85 7 404 -5
524 -20z"/>
<path d="M5010 7606 c-103 -73 -182 -147 -253 -235 -43 -54 -55 -76 -45 -81
45 -25 203 -45 353 -45 159 0 445 30 445 47 0 9 -176 199 -223 241 -46 42
-174 127 -189 127 -7 0 -47 -25 -88 -54z"/>
<path d="M4506 7009 c-138 -286 -199 -565 -198 -904 1 -269 61 -623 140 -823
l37 -93 628 -2 c550 -2 628 0 631 13 3 8 10 41 16 73 7 32 22 90 35 127 49
144 94 440 102 665 10 318 -51 635 -182 940 -24 55 -47 113 -51 129 -5 22 -11
27 -28 22 -291 -73 -541 -93 -775 -60 -102 14 -218 40 -263 59 -15 6 -30 -17
-92 -146z m778 -202 c272 -135 363 -440 202 -677 -79 -116 -175 -180 -304
-202 -60 -10 -82 -9 -149 5 -122 26 -213 76 -275 150 -74 89 -102 155 -106
251 -8 160 44 294 152 392 106 96 182 126 312 121 83 -3 99 -7 168 -40z m-104
-1147 c37 -26 54 -71 47 -123 -14 -107 -145 -132 -216 -41 -37 47 -21 132 31
168 32 23 104 20 138 -4z"/>
<path d="M5040 6681 c-52 -17 -126 -60 -157 -93 -69 -72 -91 -198 -53 -301 78
-208 330 -261 486 -103 125 128 110 331 -33 436 -68 50 -185 79 -243 61z m46
-156 c11 -28 -7 -66 -53 -116 -51 -54 -67 -59 -84 -28 -27 52 41 159 100 159
19 0 34 -6 37 -15z"/>
<path d="M3886 7105 c-28 -21 -56 -67 -56 -92 0 -33 66 -93 103 -93 40 0 92
34 107 69 31 76 -88 166 -154 116z"/>
<path d="M6193 7088 c-17 -18 -34 -43 -37 -55 -11 -36 20 -82 70 -104 49 -22
62 -19 108 30 42 44 40 84 -7 128 -50 45 -92 45 -134 1z"/>
<path d="M3355 6623 c-56 -29 -105 -85 -122 -140 -16 -50 -16 -56 1 -107 49
-157 256 -206 360 -85 63 74 67 150 12 243 -53 90 -170 132 -251 89z"/>
<path d="M6686 6625 c-72 -25 -135 -110 -136 -180 -1 -151 145 -248 277 -184
161 78 151 307 -15 364 -55 18 -75 18 -126 0z"/>
<path d="M6056 5973 c-4 -98 -11 -216 -17 -263 -14 -118 -63 -319 -99 -400
-17 -38 -30 -70 -30 -73 0 -3 10 -7 23 -10 37 -9 215 -84 324 -137 92 -45 267
-167 398 -277 l40 -34 5 348 5 348 -95 104 c-52 57 -138 149 -190 205 -53 55
-120 128 -150 161 -91 102 -192 205 -200 205 -4 0 -10 -80 -14 -177z"/>
<path d="M3890 5902 c-130 -130 -270 -275 -311 -322 l-75 -85 6 -150 c4 -82 4
-238 1 -345 -4 -107 -6 -196 -6 -197 1 -1 25 18 55 42 122 100 206 159 283
200 148 78 410 185 454 185 8 0 13 3 11 8 -66 135 -99 241 -128 407 -24 141
-43 384 -35 447 5 37 4 48 -7 48 -7 0 -119 -107 -248 -238z"/>
<path d="M3095 5741 c-53 -32 -70 -59 -70 -110 0 -105 110 -166 196 -108 18
12 39 34 46 47 32 62 1 149 -62 176 -46 19 -74 18 -110 -5z"/>
<path d="M7005 5746 c-47 -21 -67 -51 -73 -106 -4 -47 -3 -52 36 -90 34 -35
45 -40 83 -40 30 1 52 8 70 23 37 31 62 84 54 114 -19 76 -106 127 -170 99z"/>
<path d="M4608 5021 l-118 -6 -5 -132 -6 -133 626 0 625 0 0 123 c0 67 -5 129
-10 137 -8 13 -76 15 -502 16 -271 0 -546 -2 -610 -5z"/>
<path d="M3863 4531 c-42 -26 -83 -88 -83 -127 0 -46 40 -114 80 -136 48 -27
118 -20 165 16 98 75 84 196 -30 247 -52 24 -92 24 -132 0z"/>
<path d="M6203 4525 c-105 -64 -110 -184 -10 -256 69 -50 153 -32 208 44 38
53 45 96 24 142 -41 86 -143 118 -222 70z"/>
<path d="M5065 4512 l-30 -7 0 -332 c0 -375 -3 -361 78 -370 36 -4 49 -1 66
16 21 21 21 28 21 350 0 182 -3 332 -7 334 -16 10 -99 15 -128 9z"/>
<path d="M5409 4463 c-3 -67 4 -608 8 -618 2 -8 20 -21 38 -30 30 -14 38 -14
69 -1 19 8 39 23 45 34 7 14 11 125 11 320 l0 299 -37 7 c-21 3 -59 6 -85 6
-39 0 -48 -3 -49 -17z"/>
<path d="M4650 4455 c-10 -12 -11 -83 -8 -312 5 -292 6 -297 28 -315 33 -26
77 -27 117 -1 l23 15 0 314 0 314 -74 0 c-53 0 -77 -4 -86 -15z"/>
<path d="M5072 3630 c-34 -14 -40 -45 -34 -168 4 -104 7 -115 28 -128 31 -21
78 -21 108 0 26 16 26 18 26 147 l0 130 -35 15 c-39 16 -60 17 -93 4z"/>
<path d="M9808 8173 c7 -3 16 -2 19 1 4 3 -2 6 -13 5 -11 0 -14 -3 -6 -6z"/>
<path d="M898 8143 c5 -21 7 -23 10 -9 2 10 0 22 -6 28 -6 6 -7 0 -4 -19z"/>
<path d="M5648 8163 c6 -2 18 -2 25 0 6 3 1 5 -13 5 -14 0 -19 -2 -12 -5z"/>
<path d="M572 8140 c0 -14 2 -19 5 -12 2 6 2 18 0 25 -3 6 -5 1 -5 -13z"/>
<path d="M4132 8055 c0 -16 2 -22 5 -12 2 9 2 23 0 30 -3 6 -5 -1 -5 -18z"/>
<path d="M1212 7900 c0 -14 2 -19 5 -12 2 6 2 18 0 25 -3 6 -5 1 -5 -13z"/>
<path d="M2200 7883 c-3 -23 -2 -39 3 -34 5 5 7 24 5 42 -3 33 -4 33 -8 -8z"/>
<path d="M3492 7900 c0 -14 2 -19 5 -12 2 6 2 18 0 25 -3 6 -5 1 -5 -13z"/>
<path d="M3490 7860 c0 -6 7 -10 15 -10 8 0 15 2 15 4 0 2 -7 6 -15 10 -8 3
-15 1 -15 -4z"/>
<path d="M1143 7853 c15 -2 37 -2 50 0 12 2 0 4 -28 4 -27 0 -38 -2 -22 -4z"/>
<path d="M3568 7853 c6 -2 18 -2 25 0 6 3 1 5 -13 5 -14 0 -19 -2 -12 -5z"/>
<path d="M3483 7800 c0 -25 2 -35 4 -22 2 12 2 32 0 45 -2 12 -4 2 -4 -23z"/>
<path d="M12 7628 c-2 -83 0 -98 14 -98 8 0 12 5 9 10 -4 6 5 10 19 10 21 0
26 5 26 25 0 18 -5 25 -20 25 -13 0 -20 7 -20 20 0 11 -4 20 -9 20 -6 0 -12
19 -14 43 -2 23 -4 -2 -5 -55z m15 -60 c-3 -7 -5 -2 -5 12 0 14 2 19 5 13 2
-7 2 -19 0 -25z"/>
<path d="M582 7700 c0 -14 2 -19 5 -12 2 6 2 18 0 25 -3 6 -5 1 -5 -13z"/>
<path d="M252 7603 c-1 -23 -5 -50 -8 -60 -5 -14 -4 -15 5 -7 8 7 11 30 8 60
-3 48 -3 48 -5 7z"/>
<path d="M893 7565 c0 -22 2 -30 4 -17 2 12 2 30 0 40 -3 9 -5 -1 -4 -23z"/>
<path d="M2190 7566 c0 -19 3 -37 8 -40 4 -2 6 13 4 35 -5 48 -12 51 -12 5z"/>
<path d="M9192 7580 c0 -14 2 -19 5 -12 2 6 2 18 0 25 -3 6 -5 1 -5 -13z"/>
<path d="M590 7542 c0 -4 17 -6 38 -4 58 5 62 10 10 11 -27 1 -48 -3 -48 -7z"/>
<path d="M298 7523 c12 -2 32 -2 45 0 12 2 2 4 -23 4 -25 0 -35 -2 -22 -4z"/>
<path d="M262 7500 c0 -14 2 -19 5 -12 2 6 2 18 0 25 -3 6 -5 1 -5 -13z"/>
<path d="M262 7420 c0 -14 2 -19 5 -12 2 6 2 18 0 25 -3 6 -5 1 -5 -13z"/>
<path d="M2203 7275 c0 -27 2 -38 4 -22 2 15 2 37 0 50 -2 12 -4 0 -4 -28z"/>
<path d="M582 7255 c0 -16 2 -22 5 -12 2 9 2 23 0 30 -3 6 -5 -1 -5 -18z"/>
<path d="M10162 7255 c0 -16 2 -22 5 -12 2 9 2 23 0 30 -3 6 -5 -1 -5 -18z"/>
<path d="M10145 7210 c-12 -5 1 -6 35 -3 30 3 57 7 59 9 9 8 -75 2 -94 -6z"/>
<path d="M583 7160 c0 -25 2 -35 4 -22 2 12 2 32 0 45 -2 12 -4 2 -4 -23z"/>
<path d="M9202 6940 c0 -14 2 -19 5 -12 2 6 2 18 0 25 -3 6 -5 1 -5 -13z"/>
<path d="M10138 6925 c-2 -19 1 -36 7 -38 6 -3 9 10 7 34 -5 48 -9 49 -14 4z"/>
<path d="M2578 6903 c12 -2 32 -2 45 0 12 2 2 4 -23 4 -25 0 -35 -2 -22 -4z"/>
<path d="M10 6729 c0 -147 1 -160 16 -148 10 8 12 15 5 17 -14 5 -15 42 -1 42
6 0 10 19 9 43 -1 36 -2 39 -9 17 -6 -16 -8 14 -7 83 1 59 -1 107 -5 107 -5 0
-8 -73 -8 -161z"/>
<path d="M648 6883 c6 -2 18 -2 25 0 6 3 1 5 -13 5 -14 0 -19 -2 -12 -5z"/>
<path d="M10161 6643 c-1 -46 3 -83 8 -83 4 0 6 33 4 73 -6 102 -11 106 -12
10z"/>
<path d="M591 6584 c0 -11 3 -14 6 -6 3 7 2 16 -1 19 -3 4 -6 -2 -5 -13z"/>
<path d="M9816 6585 c-3 -8 -1 -15 4 -15 6 0 10 7 10 15 0 8 -2 15 -4 15 -2 0
-6 -7 -10 -15z"/>
<path d="M268 6543 c5 -21 7 -23 10 -9 2 10 0 22 -6 28 -6 6 -7 0 -4 -19z"/>
<path d="M10143 6360 c0 -25 2 -35 4 -22 2 12 2 32 0 45 -2 12 -4 2 -4 -23z"/>
<path d="M1552 6300 c0 -14 2 -19 5 -12 2 6 2 18 0 25 -3 6 -5 1 -5 -13z"/>
<path d="M264 6120 c0 -69 1 -97 3 -62 2 34 2 90 0 125 -2 34 -3 6 -3 -63z"/>
<path d="M10178 6233 c12 -2 32 -2 45 0 12 2 2 4 -23 4 -25 0 -35 -2 -22 -4z"/>
<path d="M14 6050 l1 -115 53 -3 c31 -2 52 1 52 7 0 6 -9 11 -20 11 -15 0 -20
7 -20 25 0 18 -5 25 -20 25 -17 0 -20 7 -20 40 0 22 -4 40 -9 40 -6 0 -12 19
-14 43 -2 23 -3 -10 -3 -73z"/>
<path d="M283 5923 c9 -2 23 -2 30 0 6 3 -1 5 -18 5 -16 0 -22 -2 -12 -5z"/>
<path d="M608 5603 c6 -2 18 -2 25 0 6 3 1 5 -13 5 -14 0 -19 -2 -12 -5z"/>
<path d="M728 5603 c6 -2 18 -2 25 0 6 3 1 5 -13 5 -14 0 -19 -2 -12 -5z"/>
<path d="M12 5393 c-1 -56 2 -93 8 -93 11 0 25 48 16 57 -3 4 -7 -5 -8 -18 -1
-13 -5 14 -8 61 l-6 85 -2 -92z"/>
<path d="M53 5283 c15 -2 37 -2 50 0 12 2 0 4 -28 4 -27 0 -38 -2 -22 -4z"/>
<path d="M10150 5272 c0 -4 17 -6 38 -4 58 5 62 10 10 11 -27 1 -48 -3 -48 -7z"/>
<path d="M10162 5050 l-2 -75 40 -3 c30 -2 40 1 40 13 0 10 -10 15 -35 15
l-34 0 -4 63 -3 62 -2 -75z"/>
<path d="M10142 4945 c0 -16 2 -22 5 -12 2 9 2 23 0 30 -3 6 -5 -1 -5 -18z"/>
<path d="M14 4750 l1 -95 55 -1 c30 -1 45 0 33 3 -13 2 -23 9 -23 14 0 5 -9 9
-20 9 -13 0 -20 7 -20 20 0 11 -4 20 -10 20 -5 0 -11 28 -13 63 -2 35 -3 21
-3 -33z"/>
<path d="M253 4760 c0 -25 2 -35 4 -22 2 12 2 32 0 45 -2 12 -4 2 -4 -23z"/>
<path d="M10142 4700 c0 -14 2 -19 5 -12 2 6 2 18 0 25 -3 6 -5 1 -5 -13z"/>
<path d="M10173 4643 c15 -2 37 -2 50 0 12 2 0 4 -28 4 -27 0 -38 -2 -22 -4z"/>
<path d="M262 4580 c0 -14 2 -19 5 -12 2 6 2 18 0 25 -3 6 -5 1 -5 -13z"/>
<path d="M10160 4393 l-5 -52 43 1 c47 1 51 8 6 11 -26 2 -29 6 -34 47 l-6 45
-4 -52z"/>
<path d="M2568 4353 c6 -2 18 -2 25 0 6 3 1 5 -13 5 -14 0 -19 -2 -12 -5z"/>
<path d="M988 4333 c17 -2 47 -2 65 0 17 2 3 4 -33 4 -36 0 -50 -2 -32 -4z"/>
<path d="M573 4140 c0 -36 2 -50 4 -32 2 17 2 47 0 65 -2 17 -4 3 -4 -33z"/>
<path d="M271 4098 l-1 -48 88 2 87 2 -80 5 -80 6 -6 40 -6 40 -2 -47z"/>
<path d="M911 4088 c0 -27 4 -48 9 -48 11 0 11 21 0 65 -7 27 -8 25 -9 -17z"/>
<path d="M1552 4100 c0 -14 2 -19 5 -12 2 6 2 18 0 25 -3 6 -5 1 -5 -13z"/>
<path d="M1550 4058 c0 -13 7 -18 28 -17 21 1 22 2 7 6 -11 3 -23 10 -27 17
-5 7 -8 5 -8 -6z"/>
<path d="M2201 4054 c0 -11 3 -14 6 -6 3 7 2 16 -1 19 -3 4 -6 -2 -5 -13z"/>
<path d="M10108 4053 c7 -3 16 -2 19 1 4 3 -2 6 -13 5 -11 0 -14 -3 -6 -6z"/>
<path d="M132 4042 l-122 -3 0 -139 c0 -88 4 -140 10 -140 6 0 9 17 8 38 -1
20 -1 56 0 80 l2 42 65 0 c58 0 65 2 65 20 0 13 7 20 20 20 13 0 20 7 20 20 0
13 7 20 19 20 25 0 28 -22 38 -265 7 -200 7 -200 16 -108 8 83 11 92 30 96
l22 4 -21 2 c-38 2 -43 22 -46 172 l-3 144 -123 -3z"/>
<path d="M10208 4043 c6 -2 18 -2 25 0 6 3 1 5 -13 5 -14 0 -19 -2 -12 -5z"/>
<path d="M683 4033 c26 -2 68 -2 95 0 26 2 4 3 -48 3 -52 0 -74 -1 -47 -3z"/>
<path d="M843 4033 c9 -2 23 -2 30 0 6 3 -1 5 -18 5 -16 0 -22 -2 -12 -5z"/>
<path d="M892 3940 c0 -14 2 -19 5 -12 2 6 2 18 0 25 -3 6 -5 1 -5 -13z"/>
<path d="M893 3820 c0 -36 2 -50 4 -32 2 17 2 47 0 65 -2 17 -4 3 -4 -33z"/>
<path d="M592 3798 l-2 -48 118 2 117 2 -112 3 -112 4 -4 42 -4 42 -1 -47z"/>
<path d="M9522 3820 c0 -14 2 -19 5 -12 2 6 2 18 0 25 -3 6 -5 1 -5 -13z"/>
<path d="M10162 3790 c0 -19 2 -27 5 -17 2 9 2 25 0 35 -3 9 -5 1 -5 -18z"/>
<path d="M1893 3753 c15 -2 37 -2 50 0 12 2 0 4 -28 4 -27 0 -38 -2 -22 -4z"/>
<path d="M8255 3750 c-14 -7 -8 -8 20 -3 22 3 42 7 44 9 9 8 -45 2 -64 -6z"/>
<path d="M900 3735 c0 -7 11 -10 30 -7 17 2 30 5 30 7 0 2 -13 5 -30 7 -19 3
-30 0 -30 -7z"/>
<path d="M9298 3743 c12 -2 32 -2 45 0 12 2 2 4 -23 4 -25 0 -35 -2 -22 -4z"/>
<path d="M574 3555 c0 -49 1 -71 3 -48 2 23 2 64 0 90 -2 26 -3 8 -3 -42z"/>
<path d="M907 3565 c6 -101 7 -105 35 -104 l23 2 -22 4 c-21 4 -23 10 -24 66
-1 34 -4 73 -9 87 -4 14 -5 -10 -3 -55z"/>
<path d="M1212 3620 c0 -14 2 -19 5 -12 2 6 2 18 0 25 -3 6 -5 1 -5 -13z"/>
<path d="M10155 3450 c-4 -6 -4 -29 0 -50 7 -39 8 -40 46 -40 l39 0 0 44 c0
41 -2 44 -31 50 -42 8 -47 8 -54 -4z"/>
<path d="M658 3443 c12 -2 32 -2 45 0 12 2 2 4 -23 4 -25 0 -35 -2 -22 -4z"/>
<path d="M37 3398 c5 -41 -13 -54 -20 -15 -2 12 -5 -31 -6 -95 l-1 -118 58 2
c56 2 56 2 10 5 -49 4 -68 23 -23 23 23 0 25 4 25 40 l0 40 40 0 40 0 0 40 c0
33 3 40 20 40 11 0 20 7 20 15 0 8 -9 15 -20 15 -11 0 -20 -7 -20 -15 0 -11
-11 -15 -40 -15 -33 0 -40 3 -40 20 0 13 -7 20 -19 20 -11 0 -22 8 -24 18 -2
9 -2 0 0 -20z"/>
<path d="M582 3340 l1 -105 7 78 c4 44 4 91 0 105 -5 17 -8 -11 -8 -78z"/>
<path d="M254 3295 c0 -60 1 -84 3 -52 2 32 2 81 0 110 -2 29 -3 3 -3 -58z"/>
<path d="M600 3325 c0 -28 4 -35 20 -35 16 0 20 7 20 35 0 28 -4 35 -20 35
-16 0 -20 -7 -20 -35z"/>
<path d="M893 3280 c0 -25 2 -35 4 -22 2 12 2 32 0 45 -2 12 -4 2 -4 -23z"/>
<path d="M1533 3270 c0 -30 2 -43 4 -27 2 15 2 39 0 55 -2 15 -4 2 -4 -28z"/>
<path d="M1233 3200 c0 -25 2 -35 4 -22 2 12 2 32 0 45 -2 12 -4 2 -4 -23z"/>
<path d="M10162 3180 c0 -14 2 -19 5 -12 2 6 2 18 0 25 -3 6 -5 1 -5 -13z"/>
<path d="M213 3173 c9 -2 23 -2 30 0 6 3 -1 5 -18 5 -16 0 -22 -2 -12 -5z"/>
<path d="M573 3163 c-7 -2 -13 -9 -13 -15 0 -7 4 -7 13 0 8 7 74 13 163 15
l149 3 -150 1 c-82 1 -156 -1 -162 -4z"/>
<path d="M1333 3163 c31 -2 83 -2 115 0 31 2 5 3 -58 3 -63 0 -89 -1 -57 -3z"/>
<path d="M8968 3163 c28 -2 76 -2 105 0 28 2 5 3 -53 3 -58 0 -81 -1 -52 -3z"/>
<path d="M260 2999 c0 -103 -4 -158 -10 -154 -6 4 -7 -1 -3 -12 6 -14 9 -12
20 15 9 21 20 32 33 32 13 0 20 7 20 20 0 13 -7 20 -20 20 -18 0 -20 7 -20 60
0 53 2 60 20 60 18 0 20 7 20 60 l0 60 -30 0 -30 0 0 -161z"/>
<path d="M1928 3153 c6 -2 18 -2 25 0 6 3 1 5 -13 5 -14 0 -19 -2 -12 -5z"/>
<path d="M8000 3150 c0 -13 50 -13 70 0 11 7 4 10 -27 10 -24 0 -43 -4 -43
-10z"/>
<path d="M10208 3153 c6 -2 18 -2 25 0 6 3 1 5 -13 5 -14 0 -19 -2 -12 -5z"/>
<path d="M1693 3143 c31 -2 83 -2 115 0 31 2 5 3 -58 3 -63 0 -89 -1 -57 -3z"/>
<path d="M1208 3105 c2 -14 6 -25 8 -25 2 0 4 11 4 25 0 14 -4 25 -9 25 -4 0
-6 -11 -3 -25z"/>
<path d="M1862 3105 c0 -16 2 -22 5 -12 2 9 2 23 0 30 -3 6 -5 -1 -5 -18z"/>
<path d="M10142 3060 c0 -14 2 -19 5 -12 2 6 2 18 0 25 -3 6 -5 1 -5 -13z"/>
<path d="M903 3000 c0 -25 2 -35 4 -22 2 12 2 32 0 45 -2 12 -4 2 -4 -23z"/>
<path d="M2522 2940 c0 -14 2 -19 5 -12 2 6 2 18 0 25 -3 6 -5 1 -5 -13z"/>
<path d="M10 2714 c0 -114 3 -143 13 -137 6 4 62 7 122 7 93 0 96 0 23 3 l-88
4 0 44 c0 38 -3 45 -20 45 -15 0 -20 7 -20 29 0 16 -3 43 -6 60 -6 28 -4 31
20 31 24 0 26 -3 26 -40 0 -33 3 -40 20 -40 17 0 20 7 20 40 0 33 -3 40 -20
40 -13 0 -20 7 -20 20 0 15 -7 20 -27 22 -16 1 -3 4 27 8 l55 7 -62 1 -63 2 0
-146z"/>
<path d="M618 2853 c12 -2 32 -2 45 0 12 2 2 4 -23 4 -25 0 -35 -2 -22 -4z"/>
<path d="M843 2843 c9 -2 23 -2 30 0 6 3 -1 5 -18 5 -16 0 -22 -2 -12 -5z"/>
<path d="M894 2745 c0 -60 1 -84 3 -52 2 32 2 81 0 110 -2 29 -3 3 -3 -58z"/>
<path d="M10208 2843 c6 -2 18 -2 25 0 6 3 1 5 -13 5 -14 0 -19 -2 -12 -5z"/>
<path d="M582 2708 c-3 -125 -1 -128 57 -126 l46 1 -45 6 -45 6 -6 105 -5 105
-2 -97z"/>
<path d="M7003 2680 c0 -25 2 -35 4 -22 2 12 2 32 0 45 -2 12 -4 2 -4 -23z"/>
<path d="M9522 2700 c0 -14 2 -19 5 -12 2 6 2 18 0 25 -3 6 -5 1 -5 -13z"/>
<path d="M788 2583 c17 -2 47 -2 65 0 17 2 3 4 -33 4 -36 0 -50 -2 -32 -4z"/>
<path d="M368 2563 c6 -2 18 -2 25 0 6 3 1 5 -13 5 -14 0 -19 -2 -12 -5z"/>
<path d="M488 2563 c6 -2 18 -2 25 0 6 3 1 5 -13 5 -14 0 -19 -2 -12 -5z"/>
<path d="M267 2415 c3 -38 7 -72 9 -74 7 -8 2 94 -6 119 -5 15 -6 -4 -3 -45z"/>
<path d="M574 2380 c0 -58 1 -81 3 -52 2 28 2 76 0 105 -2 28 -3 5 -3 -53z"/>
<path d="M9513 2440 c0 -25 2 -35 4 -22 2 12 2 32 0 45 -2 12 -4 2 -4 -23z"/>
<path d="M6683 2400 c0 -25 2 -35 4 -22 2 12 2 32 0 45 -2 12 -4 2 -4 -23z"/>
<path d="M320 2360 c0 -33 3 -40 20 -40 17 0 20 7 20 40 0 33 -3 40 -20 40
-17 0 -20 -7 -20 -40z"/>
<path d="M1212 2345 c0 -16 2 -22 5 -12 2 9 2 23 0 30 -3 6 -5 -1 -5 -18z"/>
<path d="M271 2308 l-1 -28 148 2 147 1 -140 8 c-77 3 -141 7 -142 8 -1 0 -4
9 -6 19 -3 10 -5 6 -6 -10z"/>
<path d="M7322 2300 c0 -14 2 -19 5 -12 2 6 2 18 0 25 -3 6 -5 1 -5 -13z"/>
<path d="M978 2293 c34 -2 90 -2 125 0 34 2 6 3 -63 3 -69 0 -97 -1 -62 -3z"/>
<path d="M1206 2291 c-3 -5 1 -11 9 -14 9 -4 12 -1 8 9 -6 16 -10 17 -17 5z"/>
<path d="M1598 2283 c23 -2 61 -2 85 0 23 2 4 4 -43 4 -47 0 -66 -2 -42 -4z"/>
<path d="M10 2268 c0 -12 188 -10 195 2 3 6 -32 8 -95 7 -55 -1 -100 -5 -100
-9z"/>
<path d="M9185 2270 c-16 -7 -17 -9 -3 -9 9 -1 20 4 23 9 7 11 7 11 -20 0z"/>
<path d="M1908 2263 c17 -2 47 -2 65 0 17 2 3 4 -33 4 -36 0 -50 -2 -32 -4z"/>
<path d="M2088 2263 c6 -2 18 -2 25 0 6 3 1 5 -13 5 -14 0 -19 -2 -12 -5z"/>
<path d="M8428 2263 c17 -2 47 -2 65 0 17 2 3 4 -33 4 -36 0 -50 -2 -32 -4z"/>
<path d="M9128 2263 c6 -2 18 -2 25 0 6 3 1 5 -13 5 -14 0 -19 -2 -12 -5z"/>
<path d="M9835 2259 c-4 -6 -5 -12 -2 -15 2 -3 7 2 10 11 7 17 1 20 -8 4z"/>
<path d="M10163 2263 c9 -2 23 -2 30 0 6 3 -1 5 -18 5 -16 0 -22 -2 -12 -5z"/>
<path d="M9193 2100 c0 -36 2 -50 4 -32 2 17 2 47 0 65 -2 17 -4 3 -4 -33z"/>
<path d="M253 2055 c0 -38 2 -53 4 -32 2 20 2 52 0 70 -2 17 -4 1 -4 -38z"/>
<path d="M1873 2055 c0 -38 2 -53 4 -32 2 20 2 52 0 70 -2 17 -4 1 -4 -38z"/>
<path d="M7633 2060 c0 -36 2 -50 4 -32 2 17 2 47 0 65 -2 17 -4 3 -4 -33z"/>
<path d="M7003 2000 c0 -25 2 -35 4 -22 2 12 2 32 0 45 -2 12 -4 2 -4 -23z"/>
<path d="M10162 2020 c0 -14 2 -19 5 -12 2 6 2 18 0 25 -3 6 -5 1 -5 -13z"/>
<path d="M22 1988 c-20 -20 -14 -28 23 -28 19 0 35 5 35 10 0 6 -9 10 -19 10
-11 0 -21 5 -23 10 -2 7 -8 6 -16 -2z"/>
<path d="M9018 1973 c12 -2 32 -2 45 0 12 2 2 4 -23 4 -25 0 -35 -2 -22 -4z"/>
<path d="M266 1958 c6 -10 80 -9 114 2 18 6 4 8 -47 8 -40 -1 -70 -5 -67 -10z"/>
<path d="M8008 1953 c6 -2 18 -2 25 0 6 3 1 5 -13 5 -14 0 -19 -2 -12 -5z"/>
<path d="M10208 1953 c6 -2 18 -2 25 0 6 3 1 5 -13 5 -14 0 -19 -2 -12 -5z"/>
<path d="M8008 1663 c6 -2 18 -2 25 0 6 3 1 5 -13 5 -14 0 -19 -2 -12 -5z"/>
<path d="M902 1500 c0 -14 2 -19 5 -12 2 6 2 18 0 25 -3 6 -5 1 -5 -13z"/>
<path d="M2190 1440 c0 -22 3 -40 8 -40 4 0 6 18 4 40 -2 22 -6 40 -8 40 -2 0
-4 -18 -4 -40z"/>
<path d="M2843 1440 c0 -25 2 -35 4 -22 2 12 2 32 0 45 -2 12 -4 2 -4 -23z"/>
<path d="M3802 1420 c0 -14 2 -19 5 -12 2 6 2 18 0 25 -3 6 -5 1 -5 -13z"/>
<path d="M2513 1395 c0 -22 2 -30 4 -17 2 12 2 30 0 40 -3 9 -5 -1 -4 -23z"/>
<path d="M3152 1380 c0 -14 2 -19 5 -12 2 6 2 18 0 25 -3 6 -5 1 -5 -13z"/>
<path d="M2898 1363 c12 -2 32 -2 45 0 12 2 2 4 -23 4 -25 0 -35 -2 -22 -4z"/>
<path d="M598 1353 c12 -2 32 -2 45 0 12 2 2 4 -23 4 -25 0 -35 -2 -22 -4z"/>
<path d="M718 1353 c23 -2 61 -2 85 0 23 2 4 4 -43 4 -47 0 -66 -2 -42 -4z"/>
<path d="M1968 1353 c6 -2 18 -2 25 0 6 3 1 5 -13 5 -14 0 -19 -2 -12 -5z"/>
<path d="M8018 1353 c12 -2 32 -2 45 0 12 2 2 4 -23 4 -25 0 -35 -2 -22 -4z"/>
<path d="M10 1315 c0 -19 2 -35 4 -35 2 0 6 16 8 35 2 19 0 35 -4 35 -4 0 -8
-16 -8 -35z"/>
<path d="M582 1300 c0 -14 2 -19 5 -12 2 6 2 18 0 25 -3 6 -5 1 -5 -13z"/>
<path d="M2524 1195 c0 -71 1 -99 3 -62 2 37 2 96 0 130 -2 34 -3 4 -3 -68z"/>
<path d="M5732 1300 c0 -14 2 -19 5 -12 2 6 2 18 0 25 -3 6 -5 1 -5 -13z"/>
<path d="M252 1260 c0 -14 2 -19 5 -12 2 6 2 18 0 25 -3 6 -5 1 -5 -13z"/>
<path d="M583 1170 c0 -41 2 -58 4 -37 2 20 2 54 0 75 -2 20 -4 3 -4 -38z"/>
<path d="M10163 1200 c0 -25 2 -35 4 -22 2 12 2 32 0 45 -2 12 -4 2 -4 -23z"/>
<path d="M11 1104 l-1 -62 98 0 c77 0 86 2 45 7 -29 4 -58 12 -65 19 -6 6 -22
12 -34 12 -17 0 -23 9 -31 43 l-11 42 -1 -61z"/>
<path d="M1872 1100 c0 -14 2 -19 5 -12 2 6 2 18 0 25 -3 6 -5 1 -5 -13z"/>
<path d="M4132 1100 c0 -14 2 -19 5 -12 2 6 2 18 0 25 -3 6 -5 1 -5 -13z"/>
<path d="M9008 1053 c6 -2 18 -2 25 0 6 3 1 5 -13 5 -14 0 -19 -2 -12 -5z"/>
<path d="M9163 1053 c9 -2 23 -2 30 0 6 3 -1 5 -18 5 -16 0 -22 -2 -12 -5z"/>
<path d="M260 962 l5 -87 3 79 c2 44 -1 83 -5 87 -4 4 -6 -31 -3 -79z"/>
<path d="M898 1023 c5 -21 7 -23 10 -9 2 10 0 22 -6 28 -6 6 -7 0 -4 -19z"/>
<path d="M320 1030 c0 -13 40 -13 60 0 11 7 5 10 -22 10 -21 0 -38 -4 -38 -10z"/>
<path d="M418 1033 c12 -2 32 -2 45 0 12 2 2 4 -23 4 -25 0 -35 -2 -22 -4z"/>
<path d="M6188 1033 c17 -2 47 -2 65 0 17 2 3 4 -33 4 -36 0 -50 -2 -32 -4z"/>
<path d="M7708 1033 c17 -2 47 -2 65 0 17 2 3 4 -33 4 -36 0 -50 -2 -32 -4z"/>
<path d="M9928 1033 c6 -2 18 -2 25 0 6 3 1 5 -13 5 -14 0 -19 -2 -12 -5z"/>
<path d="M2843 870 c0 -30 2 -43 4 -27 2 15 2 39 0 55 -2 15 -4 2 -4 -28z"/>
<path d="M573 800 c0 -47 2 -66 4 -42 2 23 2 61 0 85 -2 23 -4 4 -4 -43z"/>
<path d="M2511 778 c0 -26 3 -49 7 -52 4 -2 6 12 4 32 -6 62 -10 69 -11 20z"/>
<path d="M10142 740 c0 -14 2 -19 5 -12 2 6 2 18 0 25 -3 6 -5 1 -5 -13z"/>
<path d="M3481 734 c0 -11 3 -14 6 -6 3 7 2 16 -1 19 -3 4 -6 -2 -5 -13z"/>
<path d="M1608 733 c6 -2 18 -2 25 0 6 3 1 5 -13 5 -14 0 -19 -2 -12 -5z"/>
<path d="M2888 733 c6 -2 18 -2 25 0 6 3 1 5 -13 5 -14 0 -19 -2 -12 -5z"/>
<path d="M252 540 c0 -14 2 -19 5 -12 2 6 2 18 0 25 -3 6 -5 1 -5 -13z"/>
<path d="M2828 460 c-2 -22 0 -40 4 -40 5 0 8 18 8 40 0 22 -2 40 -4 40 -2 0
-6 -18 -8 -40z"/>
<path d="M11 458 c-1 -28 13 -45 24 -28 3 5 2 10 -4 10 -5 0 -12 10 -14 23 -4
19 -4 19 -6 -5z"/>
<path d="M600 419 c0 -5 46 -9 103 -8 56 0 98 2 92 4 -24 8 -195 12 -195 4z"/>
<path d="M8613 403 c15 -2 37 -2 50 0 12 2 0 4 -28 4 -27 0 -38 -2 -22 -4z"/>
<path d="M573 180 c0 -36 2 -50 4 -32 2 17 2 47 0 65 -2 17 -4 3 -4 -33z"/>
<path d="M272 133 l-2 -53 158 1 c86 0 151 3 143 6 -8 3 -9 8 -3 12 6 3 -13 6
-41 7 -29 0 -96 2 -149 4 l-97 4 -4 36 c-3 26 -4 22 -5 -17z"/>
<path d="M5092 140 c0 -14 2 -19 5 -12 2 6 2 18 0 25 -3 6 -5 1 -5 -13z"/>
<path d="M400 135 c0 -8 9 -15 20 -15 11 0 20 7 20 15 0 8 -9 15 -20 15 -11 0
-20 -7 -20 -15z"/>
<path d="M912 100 c0 -14 2 -19 5 -12 2 6 2 18 0 25 -3 6 -5 1 -5 -13z"/>
<path d="M1040 95 c0 -10 10 -15 33 -15 l32 1 -25 14 c-32 18 -40 18 -40 0z"/>
<path d="M5090 95 c0 -8 4 -15 10 -15 5 0 7 7 4 15 -4 8 -8 15 -10 15 -2 0 -4
-7 -4 -15z"/>
<path d="M7925 90 c-3 -5 -1 -10 4 -10 6 0 11 5 11 10 0 6 -2 10 -4 10 -3 0
-8 -4 -11 -10z"/>
<path d="M20 77 c0 -9 30 -11 111 -9 61 2 109 5 108 6 -2 2 -52 6 -111 9 -80
4 -108 3 -108 -6z"/>
<path d="M2898 83 c12 -2 32 -2 45 0 12 2 2 4 -23 4 -25 0 -35 -2 -22 -4z"/>
<path d="M8328 83 c28 -2 76 -2 105 0 28 2 5 3 -53 3 -58 0 -81 -1 -52 -3z"/>
<path d="M678 73 c23 -2 61 -2 85 0 23 2 4 4 -43 4 -47 0 -66 -2 -42 -4z"/>
<path d="M4442 20 c0 -14 2 -19 5 -12 2 6 2 18 0 25 -3 6 -5 1 -5 -13z"/>
</g>
</svg>
